<svg xmlns="http://www.w3.org/2000/svg" width="36" height="36" viewBox="0 0 64 64">
  <g fill="#ffcbd8" stroke="#f08fa6" stroke-width="9" stroke-linejoin="round" stroke-linecap="round">
    <rect x="23" y="7" width="8" height="34" rx="4"/>
    <rect x="25" y="30" width="26" height="24" rx="9"/>
    <path d="M12 40 q4 -3 8 1 l6 8"/>
    <rect x="33" y="27" width="5" height="12" rx="2.5"/><rect x="40" y="29" width="5" height="12" rx="2.5"/><rect x="46.5" y="32" width="4.5" height="12" rx="2.2"/>
  </g>
  <g fill="#ffcbd8" stroke="#ffcbd8" stroke-width="4.5" stroke-linejoin="round" stroke-linecap="round">
    <rect x="23" y="7" width="8" height="34" rx="4"/>
    <rect x="25" y="30" width="26" height="24" rx="9"/>
    <path d="M12 40 q4 -3 8 1 l6 8"/>
    <rect x="33" y="27" width="5" height="12" rx="2.5"/><rect x="40" y="29" width="5" height="12" rx="2.5"/><rect x="46.5" y="32" width="4.5" height="12" rx="2.2"/>
  </g>
  <path d="M32 30 v9 M39 30 v10 M46 32 v9" stroke="#f08fa6" stroke-width="2.4" stroke-linecap="round" fill="none"/>
  <path d="M25.5 11 v7" stroke="#fff" stroke-width="2.6" stroke-linecap="round" opacity=".85"/>
  <g stroke="#f08fa6" stroke-width="2.2" fill="#ffe3a1">
    <circle cx="48" cy="46.5" r="4.2"/><circle cx="53.2" cy="50.3" r="4.2"/><circle cx="51.2" cy="56.4" r="4.2"/><circle cx="44.8" cy="56.4" r="4.2"/><circle cx="42.8" cy="50.3" r="4.2"/>
  </g>
  <circle cx="48" cy="52" r="5.2" fill="#ffe3a1"/><circle cx="48" cy="52" r="2.6" fill="#f6a0b4"/>
</svg>
